<mxfile host="app.diagrams.net" modified="2023-05-16T07:49:42.767Z" agent="Mozilla/5.0 (Macintosh; Intel Mac OS X 10_15_7) AppleWebKit/537.36 (KHTML, like Gecko) Chrome/113.0.0.0 Safari/537.36" etag="lfELmALMUi-lhpgHAaNc" version="21.2.9" type="github">
  <diagram name="第 1 页" id="_v0rA3Jw4TBGOyB4lB6z">
    <mxGraphModel dx="2385" dy="1280" grid="1" gridSize="10" guides="1" tooltips="1" connect="1" arrows="1" fold="1" page="1" pageScale="1" pageWidth="827" pageHeight="1169" background="none" math="0" shadow="0">
      <root>
        <mxCell id="0" />
        <mxCell id="1" parent="0" />
        <mxCell id="NxGHSbuyePtFl8O7x2-v-25" value="" style="edgeStyle=orthogonalEdgeStyle;rounded=1;orthogonalLoop=1;jettySize=auto;html=1;labelBackgroundColor=none;strokeColor=#E07A5F;fontColor=default;" parent="1" source="NxGHSbuyePtFl8O7x2-v-23" target="NxGHSbuyePtFl8O7x2-v-24" edge="1">
          <mxGeometry relative="1" as="geometry" />
        </mxCell>
        <mxCell id="NxGHSbuyePtFl8O7x2-v-23" value="开始" style="rounded=1;whiteSpace=wrap;html=1;labelBackgroundColor=none;fillColor=#F2CC8F;strokeColor=#E07A5F;fontColor=#393C56;" parent="1" vertex="1">
          <mxGeometry x="60" y="60" width="100" height="30" as="geometry" />
        </mxCell>
        <mxCell id="NxGHSbuyePtFl8O7x2-v-27" value="" style="edgeStyle=orthogonalEdgeStyle;rounded=1;orthogonalLoop=1;jettySize=auto;html=1;fontFamily=Helvetica;fontSize=12;fontColor=default;labelBackgroundColor=none;strokeColor=#E07A5F;" parent="1" source="NxGHSbuyePtFl8O7x2-v-24" target="NxGHSbuyePtFl8O7x2-v-26" edge="1">
          <mxGeometry relative="1" as="geometry" />
        </mxCell>
        <mxCell id="NxGHSbuyePtFl8O7x2-v-24" value="PRA生成当天的处理状态记录" style="whiteSpace=wrap;html=1;rounded=1;labelBackgroundColor=none;fillColor=#F2CC8F;strokeColor=#E07A5F;fontColor=#393C56;" parent="1" vertex="1">
          <mxGeometry x="210" y="56.25" width="100" height="37.5" as="geometry" />
        </mxCell>
        <mxCell id="NxGHSbuyePtFl8O7x2-v-29" value="" style="edgeStyle=orthogonalEdgeStyle;rounded=1;orthogonalLoop=1;jettySize=auto;html=1;fontFamily=Helvetica;fontSize=12;fontColor=default;labelBackgroundColor=none;strokeColor=#E07A5F;" parent="1" source="NxGHSbuyePtFl8O7x2-v-30" target="NxGHSbuyePtFl8O7x2-v-28" edge="1">
          <mxGeometry relative="1" as="geometry" />
        </mxCell>
        <mxCell id="NxGHSbuyePtFl8O7x2-v-35" value="" style="edgeStyle=orthogonalEdgeStyle;rounded=0;orthogonalLoop=1;jettySize=auto;html=1;strokeColor=#E07A5F;fontColor=#393C56;fillColor=#F2CC8F;" parent="1" source="NxGHSbuyePtFl8O7x2-v-37" target="NxGHSbuyePtFl8O7x2-v-34" edge="1">
          <mxGeometry relative="1" as="geometry" />
        </mxCell>
        <mxCell id="NxGHSbuyePtFl8O7x2-v-26" value="判断是否存在处理失败的工单" style="whiteSpace=wrap;html=1;rounded=1;labelBackgroundColor=none;fillColor=#F2CC8F;strokeColor=#E07A5F;fontColor=#393C56;" parent="1" vertex="1">
          <mxGeometry x="370" y="51.25" width="130" height="47.5" as="geometry" />
        </mxCell>
        <mxCell id="GA2RgRAyfH7ty6vFdGFw-20" style="edgeStyle=orthogonalEdgeStyle;rounded=0;orthogonalLoop=1;jettySize=auto;html=1;entryX=0.5;entryY=0;entryDx=0;entryDy=0;strokeColor=#E07A5F;fontColor=#393C56;fillColor=#F2CC8F;" parent="1" source="NxGHSbuyePtFl8O7x2-v-28" target="To9YzuIhk23lg34-Ovkb-1" edge="1">
          <mxGeometry relative="1" as="geometry">
            <Array as="points">
              <mxPoint x="435" y="360" />
              <mxPoint x="815" y="360" />
              <mxPoint x="815" y="390" />
              <mxPoint x="825" y="390" />
            </Array>
          </mxGeometry>
        </mxCell>
        <mxCell id="NxGHSbuyePtFl8O7x2-v-28" value="解析的工处理失败的工单" style="whiteSpace=wrap;html=1;rounded=1;labelBackgroundColor=none;fillColor=#F2CC8F;strokeColor=#E07A5F;fontColor=#393C56;" parent="1" vertex="1">
          <mxGeometry x="377.5" y="200" width="115" height="40" as="geometry" />
        </mxCell>
        <mxCell id="NxGHSbuyePtFl8O7x2-v-40" value="" style="edgeStyle=orthogonalEdgeStyle;rounded=0;orthogonalLoop=1;jettySize=auto;html=1;strokeColor=#E07A5F;fontColor=#393C56;fillColor=#F2CC8F;" parent="1" source="NxGHSbuyePtFl8O7x2-v-41" target="NxGHSbuyePtFl8O7x2-v-39" edge="1">
          <mxGeometry relative="1" as="geometry" />
        </mxCell>
        <mxCell id="NxGHSbuyePtFl8O7x2-v-43" value="" style="edgeStyle=orthogonalEdgeStyle;rounded=0;orthogonalLoop=1;jettySize=auto;html=1;strokeColor=#E07A5F;fontColor=#393C56;fillColor=#F2CC8F;entryX=0;entryY=0.5;entryDx=0;entryDy=0;" parent="1" source="GA2RgRAyfH7ty6vFdGFw-3" target="GA2RgRAyfH7ty6vFdGFw-1" edge="1">
          <mxGeometry relative="1" as="geometry">
            <mxPoint x="824.9999999999998" y="75.69230769230768" as="targetPoint" />
          </mxGeometry>
        </mxCell>
        <mxCell id="NxGHSbuyePtFl8O7x2-v-34" value="判断有无执行失败的任务" style="whiteSpace=wrap;html=1;rounded=1;labelBackgroundColor=none;fillColor=#F2CC8F;strokeColor=#E07A5F;fontColor=#393C56;" parent="1" vertex="1">
          <mxGeometry x="600" y="51.25" width="140" height="48.75" as="geometry" />
        </mxCell>
        <mxCell id="GA2RgRAyfH7ty6vFdGFw-19" style="edgeStyle=orthogonalEdgeStyle;rounded=0;orthogonalLoop=1;jettySize=auto;html=1;entryX=0.5;entryY=0;entryDx=0;entryDy=0;strokeColor=#E07A5F;fontColor=#393C56;fillColor=#F2CC8F;" parent="1" source="NxGHSbuyePtFl8O7x2-v-39" target="To9YzuIhk23lg34-Ovkb-1" edge="1">
          <mxGeometry relative="1" as="geometry" />
        </mxCell>
        <mxCell id="NxGHSbuyePtFl8O7x2-v-39" value="获取失败任务日期 获取任务失败的数据" style="whiteSpace=wrap;html=1;rounded=1;labelBackgroundColor=none;fillColor=#F2CC8F;strokeColor=#E07A5F;fontColor=#393C56;" parent="1" vertex="1">
          <mxGeometry x="595" y="197.5" width="150" height="40" as="geometry" />
        </mxCell>
        <mxCell id="GA2RgRAyfH7ty6vFdGFw-12" value="" style="edgeStyle=orthogonalEdgeStyle;rounded=0;orthogonalLoop=1;jettySize=auto;html=1;strokeColor=#E07A5F;fontColor=#393C56;fillColor=#F2CC8F;" parent="1" source="GA2RgRAyfH7ty6vFdGFw-1" target="GA2RgRAyfH7ty6vFdGFw-11" edge="1">
          <mxGeometry relative="1" as="geometry" />
        </mxCell>
        <mxCell id="GA2RgRAyfH7ty6vFdGFw-1" value="打开浏览器获取当天需要执行的数据" style="whiteSpace=wrap;html=1;rounded=1;labelBackgroundColor=none;fillColor=#F2CC8F;strokeColor=#E07A5F;fontColor=#393C56;" parent="1" vertex="1">
          <mxGeometry x="860" y="51.25" width="140" height="48.75" as="geometry" />
        </mxCell>
        <mxCell id="GA2RgRAyfH7ty6vFdGFw-6" value="" style="edgeStyle=orthogonalEdgeStyle;rounded=0;orthogonalLoop=1;jettySize=auto;html=1;strokeColor=#E07A5F;fontColor=#393C56;fillColor=#F2CC8F;" parent="1" source="NxGHSbuyePtFl8O7x2-v-34" target="GA2RgRAyfH7ty6vFdGFw-3" edge="1">
          <mxGeometry relative="1" as="geometry">
            <mxPoint x="740" y="76" as="sourcePoint" />
            <mxPoint x="820" y="76" as="targetPoint" />
          </mxGeometry>
        </mxCell>
        <mxCell id="GA2RgRAyfH7ty6vFdGFw-3" value="不存在失败任务" style="text;html=1;strokeColor=none;fillColor=none;align=center;verticalAlign=middle;whiteSpace=wrap;rounded=0;fontColor=#393C56;" parent="1" vertex="1">
          <mxGeometry x="745" y="60" width="60" height="30" as="geometry" />
        </mxCell>
        <mxCell id="GA2RgRAyfH7ty6vFdGFw-7" value="" style="edgeStyle=orthogonalEdgeStyle;rounded=0;orthogonalLoop=1;jettySize=auto;html=1;strokeColor=#E07A5F;fontColor=#393C56;fillColor=#F2CC8F;" parent="1" source="NxGHSbuyePtFl8O7x2-v-34" target="NxGHSbuyePtFl8O7x2-v-41" edge="1">
          <mxGeometry relative="1" as="geometry">
            <mxPoint x="670" y="100" as="sourcePoint" />
            <mxPoint x="670" y="180" as="targetPoint" />
          </mxGeometry>
        </mxCell>
        <mxCell id="NxGHSbuyePtFl8O7x2-v-41" value="存在失败任务" style="text;html=1;strokeColor=none;fillColor=none;align=center;verticalAlign=middle;whiteSpace=wrap;rounded=0;fontColor=#393C56;" parent="1" vertex="1">
          <mxGeometry x="635" y="120" width="70" height="30" as="geometry" />
        </mxCell>
        <mxCell id="GA2RgRAyfH7ty6vFdGFw-8" value="" style="edgeStyle=orthogonalEdgeStyle;rounded=0;orthogonalLoop=1;jettySize=auto;html=1;strokeColor=#E07A5F;fontColor=#393C56;fillColor=#F2CC8F;" parent="1" source="NxGHSbuyePtFl8O7x2-v-26" target="NxGHSbuyePtFl8O7x2-v-37" edge="1">
          <mxGeometry relative="1" as="geometry">
            <mxPoint x="500" y="75" as="sourcePoint" />
            <mxPoint x="600" y="76" as="targetPoint" />
          </mxGeometry>
        </mxCell>
        <mxCell id="NxGHSbuyePtFl8O7x2-v-37" value="没有处理失败的数据" style="text;html=1;strokeColor=none;fillColor=none;align=center;verticalAlign=middle;whiteSpace=wrap;rounded=0;fontColor=#393C56;" parent="1" vertex="1">
          <mxGeometry x="510" y="60" width="70" height="30" as="geometry" />
        </mxCell>
        <mxCell id="GA2RgRAyfH7ty6vFdGFw-9" value="" style="edgeStyle=orthogonalEdgeStyle;rounded=1;orthogonalLoop=1;jettySize=auto;html=1;fontFamily=Helvetica;fontSize=12;fontColor=default;labelBackgroundColor=none;strokeColor=#E07A5F;" parent="1" source="NxGHSbuyePtFl8O7x2-v-26" target="NxGHSbuyePtFl8O7x2-v-30" edge="1">
          <mxGeometry relative="1" as="geometry">
            <mxPoint x="435" y="99" as="sourcePoint" />
            <mxPoint x="435" y="173" as="targetPoint" />
          </mxGeometry>
        </mxCell>
        <mxCell id="NxGHSbuyePtFl8O7x2-v-30" value="存在处理失败的工单" style="text;html=1;strokeColor=none;fillColor=none;align=center;verticalAlign=middle;whiteSpace=wrap;rounded=1;fontSize=12;fontFamily=Helvetica;fontColor=#393C56;labelBackgroundColor=none;" parent="1" vertex="1">
          <mxGeometry x="400.5" y="128" width="69" height="22" as="geometry" />
        </mxCell>
        <mxCell id="GA2RgRAyfH7ty6vFdGFw-17" style="edgeStyle=orthogonalEdgeStyle;rounded=0;orthogonalLoop=1;jettySize=auto;html=1;entryX=0.5;entryY=0;entryDx=0;entryDy=0;strokeColor=#E07A5F;fontColor=#393C56;fillColor=#F2CC8F;" parent="1" source="GA2RgRAyfH7ty6vFdGFw-11" target="To9YzuIhk23lg34-Ovkb-1" edge="1">
          <mxGeometry relative="1" as="geometry" />
        </mxCell>
        <mxCell id="GA2RgRAyfH7ty6vFdGFw-51" value="" style="edgeStyle=orthogonalEdgeStyle;rounded=0;orthogonalLoop=1;jettySize=auto;html=1;strokeColor=#E07A5F;fontColor=#393C56;fillColor=#F2CC8F;" parent="1" source="GA2RgRAyfH7ty6vFdGFw-11" target="GA2RgRAyfH7ty6vFdGFw-50" edge="1">
          <mxGeometry relative="1" as="geometry" />
        </mxCell>
        <mxCell id="GA2RgRAyfH7ty6vFdGFw-11" value="解析后判断有没有需要处理的数据" style="whiteSpace=wrap;html=1;rounded=1;labelBackgroundColor=none;fillColor=#F2CC8F;strokeColor=#E07A5F;fontColor=#393C56;" parent="1" vertex="1">
          <mxGeometry x="860" y="188.75" width="140" height="48.75" as="geometry" />
        </mxCell>
        <mxCell id="GA2RgRAyfH7ty6vFdGFw-54" value="" style="edgeStyle=orthogonalEdgeStyle;rounded=0;orthogonalLoop=1;jettySize=auto;html=1;strokeColor=#E07A5F;fontColor=#393C56;fillColor=#F2CC8F;" parent="1" source="GA2RgRAyfH7ty6vFdGFw-13" target="GA2RgRAyfH7ty6vFdGFw-53" edge="1">
          <mxGeometry relative="1" as="geometry" />
        </mxCell>
        <mxCell id="GA2RgRAyfH7ty6vFdGFw-13" value="循环" style="swimlane;whiteSpace=wrap;html=1;strokeColor=#E07A5F;fontColor=#393C56;fillColor=#F2CC8F;" parent="1" vertex="1">
          <mxGeometry x="550" y="500" width="530" height="310" as="geometry" />
        </mxCell>
        <mxCell id="GA2RgRAyfH7ty6vFdGFw-36" style="edgeStyle=orthogonalEdgeStyle;rounded=0;orthogonalLoop=1;jettySize=auto;html=1;entryX=0.5;entryY=0;entryDx=0;entryDy=0;strokeColor=#E07A5F;fontColor=#393C56;fillColor=#F2CC8F;" parent="GA2RgRAyfH7ty6vFdGFw-13" source="GA2RgRAyfH7ty6vFdGFw-38" target="GA2RgRAyfH7ty6vFdGFw-23" edge="1">
          <mxGeometry relative="1" as="geometry" />
        </mxCell>
        <mxCell id="GA2RgRAyfH7ty6vFdGFw-42" value="" style="edgeStyle=orthogonalEdgeStyle;rounded=0;orthogonalLoop=1;jettySize=auto;html=1;strokeColor=#E07A5F;fontColor=#393C56;fillColor=#F2CC8F;" parent="GA2RgRAyfH7ty6vFdGFw-13" source="GA2RgRAyfH7ty6vFdGFw-44" target="GA2RgRAyfH7ty6vFdGFw-41" edge="1">
          <mxGeometry relative="1" as="geometry" />
        </mxCell>
        <mxCell id="GA2RgRAyfH7ty6vFdGFw-21" value="获取工单起始状态" style="rounded=1;whiteSpace=wrap;html=1;strokeColor=#E07A5F;fontColor=#393C56;fillColor=#F2CC8F;" parent="GA2RgRAyfH7ty6vFdGFw-13" vertex="1">
          <mxGeometry x="30" y="50" width="170" height="30" as="geometry" />
        </mxCell>
        <mxCell id="GA2RgRAyfH7ty6vFdGFw-23" value="判断工单目标状态执行目标状态子流程" style="rounded=1;whiteSpace=wrap;html=1;strokeColor=#E07A5F;fontColor=#393C56;fillColor=#F2CC8F;" parent="GA2RgRAyfH7ty6vFdGFw-13" vertex="1">
          <mxGeometry x="30" y="180" width="170" height="40" as="geometry" />
        </mxCell>
        <mxCell id="GA2RgRAyfH7ty6vFdGFw-37" value="" style="edgeStyle=orthogonalEdgeStyle;rounded=0;orthogonalLoop=1;jettySize=auto;html=1;entryX=0.5;entryY=0;entryDx=0;entryDy=0;strokeColor=#E07A5F;fontColor=#393C56;fillColor=#F2CC8F;" parent="GA2RgRAyfH7ty6vFdGFw-13" source="GA2RgRAyfH7ty6vFdGFw-21" target="GA2RgRAyfH7ty6vFdGFw-38" edge="1">
          <mxGeometry relative="1" as="geometry">
            <mxPoint x="685" y="540" as="sourcePoint" />
            <mxPoint x="685" y="640" as="targetPoint" />
          </mxGeometry>
        </mxCell>
        <mxCell id="GA2RgRAyfH7ty6vFdGFw-38" value="工单存在" style="text;html=1;strokeColor=none;fillColor=none;align=center;verticalAlign=middle;whiteSpace=wrap;rounded=0;fontColor=#393C56;" parent="GA2RgRAyfH7ty6vFdGFw-13" vertex="1">
          <mxGeometry x="72.5" y="110" width="85" height="30" as="geometry" />
        </mxCell>
        <mxCell id="GA2RgRAyfH7ty6vFdGFw-45" style="edgeStyle=orthogonalEdgeStyle;rounded=0;orthogonalLoop=1;jettySize=auto;html=1;entryX=1;entryY=0.5;entryDx=0;entryDy=0;strokeColor=#E07A5F;fontColor=#393C56;fillColor=#F2CC8F;" parent="GA2RgRAyfH7ty6vFdGFw-13" source="GA2RgRAyfH7ty6vFdGFw-41" target="GA2RgRAyfH7ty6vFdGFw-23" edge="1">
          <mxGeometry relative="1" as="geometry">
            <Array as="points">
              <mxPoint x="430" y="200" />
            </Array>
          </mxGeometry>
        </mxCell>
        <mxCell id="GA2RgRAyfH7ty6vFdGFw-41" value="创建工单子流程" style="rounded=1;whiteSpace=wrap;html=1;strokeColor=#E07A5F;fontColor=#393C56;fillColor=#F2CC8F;" parent="GA2RgRAyfH7ty6vFdGFw-13" vertex="1">
          <mxGeometry x="340" y="50" width="170" height="30" as="geometry" />
        </mxCell>
        <mxCell id="GA2RgRAyfH7ty6vFdGFw-43" value="" style="edgeStyle=orthogonalEdgeStyle;rounded=0;orthogonalLoop=1;jettySize=auto;html=1;strokeColor=#E07A5F;fontColor=#393C56;fillColor=#F2CC8F;" parent="GA2RgRAyfH7ty6vFdGFw-13" source="GA2RgRAyfH7ty6vFdGFw-21" target="GA2RgRAyfH7ty6vFdGFw-44" edge="1">
          <mxGeometry relative="1" as="geometry">
            <mxPoint x="770" y="525" as="sourcePoint" />
            <mxPoint x="890" y="525" as="targetPoint" />
          </mxGeometry>
        </mxCell>
        <mxCell id="GA2RgRAyfH7ty6vFdGFw-44" value="工单不存在" style="text;html=1;strokeColor=none;fillColor=none;align=center;verticalAlign=middle;whiteSpace=wrap;rounded=0;fontColor=#393C56;" parent="GA2RgRAyfH7ty6vFdGFw-13" vertex="1">
          <mxGeometry x="227" y="50" width="63" height="30" as="geometry" />
        </mxCell>
        <mxCell id="GA2RgRAyfH7ty6vFdGFw-74" style="edgeStyle=orthogonalEdgeStyle;rounded=0;orthogonalLoop=1;jettySize=auto;html=1;entryX=0;entryY=0.5;entryDx=0;entryDy=0;strokeColor=#E07A5F;fontColor=#393C56;fillColor=#F2CC8F;" parent="1" source="GA2RgRAyfH7ty6vFdGFw-50" target="GA2RgRAyfH7ty6vFdGFw-72" edge="1">
          <mxGeometry relative="1" as="geometry" />
        </mxCell>
        <mxCell id="GA2RgRAyfH7ty6vFdGFw-50" value="更新任务处理状态" style="whiteSpace=wrap;html=1;rounded=1;labelBackgroundColor=none;fillColor=#F2CC8F;strokeColor=#E07A5F;fontColor=#393C56;" parent="1" vertex="1">
          <mxGeometry x="1080" y="188.75" width="140" height="48.75" as="geometry" />
        </mxCell>
        <mxCell id="GA2RgRAyfH7ty6vFdGFw-66" style="edgeStyle=orthogonalEdgeStyle;rounded=0;orthogonalLoop=1;jettySize=auto;html=1;exitX=1;exitY=0.5;exitDx=0;exitDy=0;entryX=0;entryY=0.5;entryDx=0;entryDy=0;strokeColor=#E07A5F;fontColor=#393C56;fillColor=#F2CC8F;" parent="1" source="GA2RgRAyfH7ty6vFdGFw-53" target="GA2RgRAyfH7ty6vFdGFw-55" edge="1">
          <mxGeometry relative="1" as="geometry" />
        </mxCell>
        <mxCell id="GA2RgRAyfH7ty6vFdGFw-67" value="存在执行失败工单" style="edgeLabel;html=1;align=center;verticalAlign=middle;resizable=0;points=[];fontColor=#393C56;" parent="GA2RgRAyfH7ty6vFdGFw-66" vertex="1" connectable="0">
          <mxGeometry x="-0.0478" y="3" relative="1" as="geometry">
            <mxPoint as="offset" />
          </mxGeometry>
        </mxCell>
        <mxCell id="GA2RgRAyfH7ty6vFdGFw-53" value="判断是否有失败的工单" style="whiteSpace=wrap;html=1;fillColor=#F2CC8F;strokeColor=#E07A5F;fontColor=#393C56;fontStyle=1;startSize=23;" parent="1" vertex="1">
          <mxGeometry x="1210" y="552.5" width="180" height="45" as="geometry" />
        </mxCell>
        <mxCell id="GA2RgRAyfH7ty6vFdGFw-68" style="edgeStyle=orthogonalEdgeStyle;rounded=0;orthogonalLoop=1;jettySize=auto;html=1;exitX=0.5;exitY=0;exitDx=0;exitDy=0;entryX=0;entryY=0.5;entryDx=0;entryDy=0;strokeColor=#E07A5F;fontColor=#393C56;fillColor=#F2CC8F;" parent="1" source="GA2RgRAyfH7ty6vFdGFw-55" target="GA2RgRAyfH7ty6vFdGFw-59" edge="1">
          <mxGeometry relative="1" as="geometry" />
        </mxCell>
        <mxCell id="GA2RgRAyfH7ty6vFdGFw-55" value="发送邮件给运维人员" style="whiteSpace=wrap;html=1;fillColor=#F2CC8F;strokeColor=#E07A5F;fontColor=#393C56;fontStyle=1;startSize=23;" parent="1" vertex="1">
          <mxGeometry x="1560" y="560" width="180" height="37.5" as="geometry" />
        </mxCell>
        <mxCell id="GA2RgRAyfH7ty6vFdGFw-62" value="" style="edgeStyle=orthogonalEdgeStyle;rounded=0;orthogonalLoop=1;jettySize=auto;html=1;strokeColor=#E07A5F;fontColor=#393C56;fillColor=#F2CC8F;" parent="1" source="GA2RgRAyfH7ty6vFdGFw-59" target="GA2RgRAyfH7ty6vFdGFw-61" edge="1">
          <mxGeometry relative="1" as="geometry" />
        </mxCell>
        <mxCell id="GA2RgRAyfH7ty6vFdGFw-63" value="存在" style="edgeLabel;html=1;align=center;verticalAlign=middle;resizable=0;points=[];fontColor=#393C56;" parent="GA2RgRAyfH7ty6vFdGFw-62" vertex="1" connectable="0">
          <mxGeometry x="0.1235" y="1" relative="1" as="geometry">
            <mxPoint as="offset" />
          </mxGeometry>
        </mxCell>
        <mxCell id="GA2RgRAyfH7ty6vFdGFw-59" value="判断工单中是否存在存在有信息缺失的工单" style="whiteSpace=wrap;html=1;fillColor=#F2CC8F;strokeColor=#E07A5F;fontColor=#393C56;fontStyle=1;startSize=23;" parent="1" vertex="1">
          <mxGeometry x="1280" y="450" width="180" height="50" as="geometry" />
        </mxCell>
        <mxCell id="GA2RgRAyfH7ty6vFdGFw-70" value="" style="edgeStyle=orthogonalEdgeStyle;rounded=0;orthogonalLoop=1;jettySize=auto;html=1;strokeColor=#E07A5F;fontColor=#393C56;fillColor=#F2CC8F;" parent="1" source="GA2RgRAyfH7ty6vFdGFw-61" target="GA2RgRAyfH7ty6vFdGFw-69" edge="1">
          <mxGeometry relative="1" as="geometry" />
        </mxCell>
        <mxCell id="GA2RgRAyfH7ty6vFdGFw-61" value="发送邮件给业务人员 运维人员&amp;nbsp;" style="whiteSpace=wrap;html=1;fillColor=#F2CC8F;strokeColor=#E07A5F;fontColor=#393C56;fontStyle=1;startSize=23;" parent="1" vertex="1">
          <mxGeometry x="1580" y="450" width="180" height="52.5" as="geometry" />
        </mxCell>
        <mxCell id="GA2RgRAyfH7ty6vFdGFw-73" value="" style="edgeStyle=orthogonalEdgeStyle;rounded=0;orthogonalLoop=1;jettySize=auto;html=1;strokeColor=#E07A5F;fontColor=#393C56;fillColor=#F2CC8F;" parent="1" source="GA2RgRAyfH7ty6vFdGFw-69" target="GA2RgRAyfH7ty6vFdGFw-72" edge="1">
          <mxGeometry relative="1" as="geometry" />
        </mxCell>
        <mxCell id="GA2RgRAyfH7ty6vFdGFw-69" value="更新任务处理状态" style="whiteSpace=wrap;html=1;fillColor=#F2CC8F;strokeColor=#E07A5F;fontColor=#393C56;fontStyle=1;startSize=23;" parent="1" vertex="1">
          <mxGeometry x="1580" y="317.5" width="180" height="52.5" as="geometry" />
        </mxCell>
        <mxCell id="GA2RgRAyfH7ty6vFdGFw-72" value="结束" style="whiteSpace=wrap;html=1;fillColor=#F2CC8F;strokeColor=#E07A5F;fontColor=#393C56;fontStyle=1;startSize=23;" parent="1" vertex="1">
          <mxGeometry x="1580" y="185" width="180" height="52.5" as="geometry" />
        </mxCell>
        <mxCell id="To9YzuIhk23lg34-Ovkb-4" style="edgeStyle=orthogonalEdgeStyle;rounded=0;orthogonalLoop=1;jettySize=auto;html=1;entryX=0.5;entryY=0;entryDx=0;entryDy=0;" edge="1" parent="1" source="To9YzuIhk23lg34-Ovkb-1" target="GA2RgRAyfH7ty6vFdGFw-13">
          <mxGeometry relative="1" as="geometry" />
        </mxCell>
        <mxCell id="To9YzuIhk23lg34-Ovkb-1" value="登录网站" style="rounded=1;whiteSpace=wrap;html=1;" vertex="1" parent="1">
          <mxGeometry x="760" y="410" width="130" height="30" as="geometry" />
        </mxCell>
      </root>
    </mxGraphModel>
  </diagram>
</mxfile>
